<svg xmlns="http://www.w3.org/2000/svg" xmlns:xlink="http://www.w3.org/1999/xlink" width="32" height="32" viewBox="0 0 32 32">
  <defs>
    <clipPath id="clip-path">
      <rect id="Rectangle_14" data-name="Rectangle 14" width="32" height="32" transform="translate(1736.447 978.683)" fill="#fff" stroke="#707070" stroke-width="1"/>
    </clipPath>
  </defs>
  <g id="Mask_Group_3" data-name="Mask Group 3" transform="translate(-1736.447 -978.683)" clip-path="url(#clip-path)">
    <g id="list-text" transform="translate(1737.022 983.908)">
      <g id="Group_6" data-name="Group 6" transform="translate(5.901)">
        <g id="Group_5" data-name="Group 5">
          <path id="Path_4" data-name="Path 4" d="M29.109,6.248H9.475a1.963,1.963,0,0,0,0,3.927H29.109a1.963,1.963,0,0,0,0-3.927Z" transform="translate(-7.511 -6.248)" fill="#52c41a"/>
        </g>
      </g>
      <g id="Group_8" data-name="Group 8" transform="translate(0 0.008)">
        <g id="Group_7" data-name="Group 7">
          <path id="Path_5" data-name="Path 5" d="M3.938,8.213a1.963,1.963,0,0,0-3.927,0,1.672,1.672,0,0,0,0,.383,1.77,1.77,0,0,0,.108.373A2.279,2.279,0,0,0,.306,9.3a1.8,1.8,0,0,0,.245.3,1.738,1.738,0,0,0,.295.236,1.6,1.6,0,0,0,.334.187,1.62,1.62,0,0,0,.412.147,1.722,1.722,0,0,0,.383,0,1.963,1.963,0,0,0,1.384-.569A1.8,1.8,0,0,0,3.6,9.3a2.279,2.279,0,0,0,.187-.334A1.823,1.823,0,0,0,3.938,8.6,1.672,1.672,0,0,0,3.938,8.213Z" transform="translate(0 -6.258)" fill="#52c41a"/>
        </g>
      </g>
      <g id="Group_10" data-name="Group 10" transform="translate(0.011 8.844)">
        <g id="Group_9" data-name="Group 9">
          <path id="Path_6" data-name="Path 6" d="M3.941,19.46a1.678,1.678,0,0,0,0-.383,1.591,1.591,0,0,0-.147-.363,1.962,1.962,0,0,0-.187-.344,1.414,1.414,0,0,0-.245-.295A1.963,1.963,0,0,0,.014,19.46a1.958,1.958,0,0,0,.324,1.09,1.885,1.885,0,0,0,.255.295,1.434,1.434,0,0,0,.295.245,1.593,1.593,0,0,0,.334.187,1.67,1.67,0,0,0,.373.108,1.629,1.629,0,0,0,.383.039,1.671,1.671,0,0,0,.383,0,1.593,1.593,0,0,0,.363-.108,1.64,1.64,0,0,0,.344-.187,1.433,1.433,0,0,0,.295-.245,1.433,1.433,0,0,0,.245-.295,1.579,1.579,0,0,0,.187-.334,1.661,1.661,0,0,0,.147-.412A1.624,1.624,0,0,0,3.941,19.46Z" transform="translate(-0.014 -17.504)" fill="#52c41a"/>
        </g>
      </g>
      <g id="Group_12" data-name="Group 12" transform="translate(0.011 17.679)">
        <g id="Group_11" data-name="Group 11">
          <path id="Path_7" data-name="Path 7" d="M3.941,30.706a1.686,1.686,0,0,0,0-.383,1.671,1.671,0,0,0-.147-.373,2.279,2.279,0,0,0-.187-.334,1.434,1.434,0,0,0-.245-.295,1.963,1.963,0,0,0-2.768,0,1.434,1.434,0,0,0-.245.295,2.279,2.279,0,0,0-.187.334,1.609,1.609,0,0,0-.108.373,1.687,1.687,0,0,0-.039.383A1.964,1.964,0,0,0,.593,32.09a1.433,1.433,0,0,0,.295.245,1.593,1.593,0,0,0,.334.187,1.67,1.67,0,0,0,.373.108,1.63,1.63,0,0,0,.383.039,1.672,1.672,0,0,0,.383,0,1.593,1.593,0,0,0,.363-.108,1.64,1.64,0,0,0,.344-.187,1.434,1.434,0,0,0,.295-.245,1.433,1.433,0,0,0,.245-.295,1.572,1.572,0,0,0,.187-.334,1.667,1.667,0,0,0,.147-.412A1.624,1.624,0,0,0,3.941,30.706Z" transform="translate(-0.014 -28.75)" fill="#52c41a"/>
        </g>
      </g>
      <g id="Group_14" data-name="Group 14" transform="translate(5.901 8.835)">
        <g id="Group_13" data-name="Group 13">
          <path id="Path_8" data-name="Path 8" d="M31.072,17.494H9.475a1.963,1.963,0,1,0,0,3.927h21.6a1.963,1.963,0,1,0,0-3.927Z" transform="translate(-7.511 -17.494)" fill="#52c41a"/>
        </g>
      </g>
      <g id="Group_16" data-name="Group 16" transform="translate(5.901 17.671)">
        <g id="Group_15" data-name="Group 15">
          <path id="Path_9" data-name="Path 9" d="M22.237,28.74H9.475a1.963,1.963,0,1,0,0,3.927H22.237a1.963,1.963,0,1,0,0-3.927Z" transform="translate(-7.511 -28.74)" fill="#52c41a"/>
        </g>
      </g>
    </g>
  </g>
</svg>
