<svg xmlns="http://www.w3.org/2000/svg" xmlns:xlink="http://www.w3.org/1999/xlink" width="50" height="50" viewBox="0 0 50 50">
  <defs>
    <clipPath id="clip-path">
      <rect id="Rectangle_3" data-name="Rectangle 3" width="38" height="38" transform="translate(1727 19.03)" fill="#fff" stroke="#707070" stroke-width="1"/>
    </clipPath>
  </defs>
  <g id="Group_54" data-name="Group 54" transform="translate(-1727 -19)">
    <rect id="Rectangle_5" data-name="Rectangle 5" width="50" height="50" rx="25" transform="translate(1727 19)" fill="#52c41a"/>
    <g id="Mask_Group_1" data-name="Mask Group 1" transform="translate(6 5.97)" clip-path="url(#clip-path)">
      <g id="settings" transform="translate(1727 19.002)">
        <g id="Group_2" data-name="Group 2" transform="translate(13.355 13.355)">
          <g id="Group_1" data-name="Group 1">
            <path id="Path_1" data-name="Path 1" d="M23.21,17.676a5.534,5.534,0,1,0,5.534,5.534A5.54,5.54,0,0,0,23.21,17.676Z" transform="translate(-17.676 -17.676)" fill="#fff"/>
          </g>
        </g>
        <g id="Group_4" data-name="Group 4">
          <g id="Group_3" data-name="Group 3">
            <path id="Path_2" data-name="Path 2" d="M37.778,22.01V15.767l-5.121-1.008a14.223,14.223,0,0,0-1.114-2.682L34.4,7.791,29.987,3.378,25.7,6.236a14.221,14.221,0,0,0-2.682-1.114L22.01,0H15.767L14.759,5.121a14.223,14.223,0,0,0-2.682,1.114L7.791,3.378,3.378,7.791l2.858,4.287a14.221,14.221,0,0,0-1.114,2.682L0,15.767V22.01l5.121,1.008A14.223,14.223,0,0,0,6.236,25.7L3.378,29.987,7.791,34.4l4.287-2.858a14.221,14.221,0,0,0,2.682,1.114l1.008,5.121H22.01l1.008-5.121A14.223,14.223,0,0,0,25.7,31.542L29.987,34.4,34.4,29.987,31.542,25.7a14.221,14.221,0,0,0,1.114-2.682ZM18.889,26.636a7.747,7.747,0,1,1,7.747-7.747A7.757,7.757,0,0,1,18.889,26.636Z" fill="#fff"/>
          </g>
        </g>
      </g>
    </g>
  </g>
</svg>
